<?xml version="1.0" encoding="iso-8859-1"?>
<!-- Generator: Adobe Illustrator 19.0.0, SVG Export Plug-In . SVG Version: 6.00 Build 0)  -->
<svg version="1.1" id="Layer_1" xmlns="http://www.w3.org/2000/svg" xmlns:xlink="http://www.w3.org/1999/xlink" x="0px" y="0px"
	 viewBox="0 0 511.996 511.996" style="enable-background:new 0 0 511.996 511.996;" xml:space="preserve">
<path style="fill:#607D8B;" d="M502.942,260.507c0,4.704-3.818,8.523-8.523,8.523h-17.045c-4.704,0-8.523,3.818-8.523,8.523
	C464.318,395.14,365.31,486.784,247.722,482.242c-14.531-0.563-28.96-2.608-43.074-6.111c-21.085-5.386-41.216-14.011-59.659-25.568
	C84.129,413.6,45.76,348.691,42.718,277.552c0-4.705-3.818-8.523-8.523-8.523H17.15c-4.705,0-8.523-3.818-8.523-8.523l0,0
	c0-136.499,110.658-247.158,247.158-247.158S502.942,124.008,502.942,260.507z"/>
<path style="fill:#CFD8DC;" d="M468.34,243.462c0,4.705-3.818,8.523-8.523,8.523h-17.045c-4.704,0-8.523,3.818-8.523,8.523
	c-4.534,117.587-103.542,209.232-221.129,204.689c-14.531-0.563-28.96-2.608-43.074-6.111c-8.693-2.31-17.233-5.156-25.568-8.523
	c-60.664-37.082-98.829-101.974-101.761-173.01c0-4.705-3.818-8.523-8.523-8.523H17.15c-4.705,0-8.523-3.818-8.523-8.523l0,0
	C13.349,124.093,127.766,17.329,264.188,22.051c28.883,0.997,57.366,7.057,84.161,17.898
	C420.281,83.039,465.46,159.658,468.34,243.462z"/>
<path style="fill:#1566C0;" d="M375.102,269.03c0.051,32.088-12.895,62.838-35.88,85.227c-3.06,3.043-6.298,5.889-9.716,8.523
	c-3.545,2.787-7.244,5.378-11.079,7.756l-2.983,1.705c-18.085,10.602-38.693,16.168-59.659,16.108
	c-5.71,0.009-11.403-0.418-17.045-1.278c-15.043-2.08-29.531-7.116-42.613-14.829l-2.983-1.705
	c-3.835-2.378-7.534-4.969-11.079-7.756c-3.418-2.633-6.656-5.48-9.716-8.523c-47.088-46.099-47.889-121.644-1.79-168.732
	c18.315-18.707,42.273-30.869,68.181-34.619c5.651-0.784,11.344-1.185,17.045-1.193C321.682,149.712,375.102,203.132,375.102,269.03
	z"/>
<path style="fill:#2296F3;" d="M341.012,269.03c0.051,32.088-12.895,62.838-35.88,85.227c-3.06,3.043-6.298,5.889-9.716,8.523
	c-3.545,2.787-7.244,5.378-11.079,7.756l-2.983,1.705c-13.082,7.713-27.571,12.75-42.613,14.829
	c-15.043-2.08-29.531-7.116-42.613-14.829l-2.983-1.705c-3.835-2.378-7.534-4.969-11.079-7.756c-3.418-2.633-6.656-5.48-9.716-8.523
	c-47.088-46.099-47.889-121.644-1.79-168.732c18.315-18.707,42.273-30.869,68.181-34.619c39.571,5.71,73.644,30.861,90.767,66.988
	C337.117,233.865,341.046,251.345,341.012,269.03z"/>
<g>
	<path style="fill:#00BCD4;" d="M306.921,473.574c0.043,0.793,0.043,1.594,0,2.386c-33.596,8.207-68.676,8.207-102.272,0
		c-0.043-0.793-0.043-1.594,0-2.386c0-28.244,22.892-51.136,51.136-51.136S306.921,445.338,306.921,473.574z"/>
	<path style="fill:#00BCD4;" d="M441.494,192.326h-18.92c-3.179-0.043-6.068-1.849-7.5-4.687
		c-44.932-88.039-152.726-122.991-240.774-78.059c-33.596,17.148-60.912,44.463-78.059,78.059c-1.432,2.838-4.321,4.645-7.5,4.687
		H69.735c-4.705-0.009-8.514-3.835-8.506-8.54c0-1.202,0.256-2.386,0.75-3.477l1.193-2.557
		C113.584,71.423,240.648,26.091,346.977,76.502c44.42,21.06,80.198,56.829,101.258,101.258l1.193,2.557
		c1.935,4.295,0.017,9.341-4.278,11.267C444,192.095,442.755,192.351,441.494,192.326z"/>
</g>
<path d="M417.716,507.665c-4.704,0.034-8.548-3.75-8.591-8.455c-0.026-2.813,1.338-5.446,3.648-7.057
	c34.508-24.477,62.94-56.548,83.096-93.749c2.352-4.142,7.619-5.591,11.761-3.239c4.142,2.352,5.591,7.619,3.239,11.761
	c-21.562,39.417-51.886,73.355-88.636,99.204C420.903,507.068,419.335,507.597,417.716,507.665z"/>
<path d="M383.625,489c-4.696-0.298-8.258-4.347-7.96-9.051c0.162-2.548,1.457-4.892,3.528-6.375
	c38.437-23.489,69.502-57.298,89.659-97.585c2.122-4.21,7.253-5.915,11.463-3.793s5.915,7.253,3.793,11.463
	c-21.665,42.98-54.937,79.031-96.051,104.062C386.727,488.548,385.193,488.992,383.625,489z"/>
<path d="M93.854,507.665c-1.764,0.017-3.494-0.52-4.943-1.534c-36.434-25.943-66.46-59.88-87.784-99.204
	c-2.352-4.142-0.903-9.409,3.239-11.761s9.409-0.903,11.761,3.239c20.156,37.201,48.588,69.272,83.096,93.749
	c3.869,2.685,4.832,7.994,2.148,11.864C99.675,506.463,96.828,507.844,93.854,507.665z"/>
<path d="M127.944,489c-1.568-0.009-3.102-0.452-4.432-1.278C82.399,462.691,49.127,426.64,27.462,383.66
	c-2.122-4.21-0.418-9.341,3.793-11.463s9.341-0.418,11.463,3.793c20.156,40.287,51.221,74.096,89.659,97.585
	c3.818,2.744,4.696,8.071,1.943,11.898C132.837,487.543,130.493,488.838,127.944,489z"/>
<path d="M255.785,490.619c-119.13,0.085-217.004-94.031-221.59-213.067H17.15c-4.628,0.009-9.06-1.875-12.273-5.199
	c-3.196-3.307-4.909-7.764-4.773-12.358c0-141.212,114.468-255.68,255.68-255.68s255.68,114.468,255.68,255.68
	c0.119,4.568-1.602,8.983-4.773,12.273c-3.205,3.358-7.636,5.267-12.273,5.284h-17.045
	C473.011,396.691,375.008,490.935,255.785,490.619z M34.195,260.507c9.222,0,16.773,7.321,17.045,16.534
	c3.835,91.014,67.15,168.621,155.539,190.652c32.207,7.815,65.804,7.815,98.011,0c88.389-22.031,151.704-99.639,155.539-190.652
	c0.273-9.213,7.824-16.534,17.045-16.534h17.045c0-131.795-106.84-238.635-238.635-238.635S17.15,128.712,17.15,260.507
	L34.195,260.507L34.195,260.507z"/>
<path d="M255.785,490.619c-17.889,0-35.719-2.148-53.096-6.392c-3.486-0.835-6.077-3.767-6.477-7.33
	c-0.085-1.108-0.119-2.216-0.085-3.324c0-32.949,26.71-59.659,59.659-59.659s59.659,26.71,59.659,59.659
	c0.06,1.108,0.06,2.216,0,3.324c-0.401,3.563-2.991,6.494-6.477,7.33C291.563,488.48,273.708,490.628,255.785,490.619z
	 M213.171,469.227c27.963,5.829,56.838,5.829,84.801,0c-2.352-23.42-23.241-40.491-46.653-38.147
	C231.146,433.108,215.2,449.063,213.171,469.227z"/>
<path d="M441.664,200.848h-18.92c-6.366-0.034-12.187-3.622-15.085-9.29c-42.784-83.855-145.448-117.144-229.303-74.36
	c-32.003,16.329-58.031,42.358-74.36,74.36c-2.898,5.668-8.719,9.256-15.085,9.29H69.905c-9.418,0.026-17.071-7.585-17.097-16.994
	c-0.009-2.429,0.503-4.824,1.5-7.04l1.193-2.557C107.865,63.65,239.984,16.426,350.6,68.789
	c46.287,21.912,83.565,59.181,105.477,105.477l1.193,2.642c3.81,8.608-0.077,18.673-8.685,22.491
	C446.403,200.354,444.051,200.857,441.664,200.848z M255.785,64.485c-78.954,0.281-150.775,45.716-184.857,116.931l-1.108,2.386
	h19.091c47.122-92.207,160.073-128.761,252.288-81.63c35.122,17.949,63.681,46.517,81.63,81.63h18.92l-1.108-2.472
	C406.559,110.133,334.722,64.733,255.785,64.485z"/>
<path d="M255.785,396.87c-22.474,0.111-44.565-5.778-64.005-17.045l-3.239-1.875c-4.074-2.616-8.003-5.463-11.761-8.523
	c-3.682-2.847-7.185-5.923-10.483-9.205c-13.091-12.852-23.267-28.372-29.829-45.511c-4.67-11.719-7.543-24.077-8.523-36.648
	c0-2.813,0-5.881,0-9.034c-0.051-18.963,4.176-37.696,12.358-54.801c30.238-63.801,106.465-91.014,170.275-60.775
	c26.667,12.639,48.145,34.108,60.775,60.775c8.156,17.114,12.349,35.846,12.273,54.801c0,3.153,0,6.222,0,9.29
	c-0.997,12.486-3.869,24.758-8.523,36.392c-6.588,17.216-16.824,32.795-30,45.682c-3.298,3.281-6.801,6.358-10.483,9.204
	c-3.759,3.06-7.679,5.906-11.761,8.523c-1.108,0.682-2.386,1.449-3.665,2.045C299.915,391.253,278.029,397.015,255.785,396.87z
	 M255.785,158.235c-42.767,0.136-81.69,24.741-100.141,63.324c-7.074,14.821-10.713,31.048-10.653,47.471c0,2.642,0,5.199,0,7.756
	c0.716,10.918,3.068,21.665,6.989,31.875c5.744,14.906,14.633,28.398,26.079,39.545c2.812,2.804,5.804,5.42,8.949,7.841
	c3.332,2.599,6.801,5.02,10.398,7.244l2.301,1.364c34.321,19.653,76.474,19.653,110.795,0l2.727-1.534
	c3.707-2.156,7.295-4.517,10.739-7.074c3.145-2.42,6.136-5.037,8.949-7.841c11.454-11.173,20.352-24.69,26.079-39.63
	c4.099-10.074,6.656-20.702,7.585-31.534c0-2.813,0-5.369,0-8.011c0.06-16.423-3.58-32.65-10.653-47.471
	C337.475,182.976,298.56,158.371,255.785,158.235z"/>
<path d="M255.785,490.619c-4.705,0-8.523-3.818-8.523-8.523v-25.568c0-4.705,3.818-8.523,8.523-8.523s8.523,3.818,8.523,8.523
	v25.568C264.307,486.81,260.498,490.619,255.785,490.619z"/>
<path d="M255.785,328.689c-10.338,0.06-20.497-2.685-29.403-7.926l-2.301-1.278c-1.798-1.125-3.528-2.352-5.199-3.665
	c-1.526-1.185-2.983-2.463-4.347-3.835c-11.77-11.182-18.426-26.719-18.409-42.954c-0.06-8.847,1.892-17.591,5.71-25.568
	c14.062-29.795,49.628-42.545,79.414-28.483c12.503,5.906,22.577,15.972,28.483,28.483c10.901,23.003,6,50.378-12.187,68.181
	c-1.44,1.466-2.974,2.83-4.602,4.091c-1.79,1.364-3.324,2.472-5.028,3.58l-2.813,1.619
	C276.205,326.106,266.08,328.791,255.785,328.689z M255.785,226.416c-16.543-0.009-31.594,9.562-38.608,24.545
	c-2.676,5.642-4.048,11.821-4.006,18.068c0.017,11.71,4.858,22.9,13.381,30.937c0.912,0.886,1.875,1.713,2.898,2.472
	c1.108,0.852,2.131,1.619,3.494,2.472l1.96,1.108c12.912,7.389,28.764,7.389,41.676,0l2.472-1.449l3.409-2.472
	c1.082-0.844,2.105-1.747,3.068-2.727c12.878-12.733,16.295-32.224,8.523-48.579C287.046,235.987,272.165,226.519,255.785,226.416z"
	/>
<path d="M255.785,294.598c-4.705,0-8.523-3.818-8.523-8.523v-34.091c0-4.705,3.818-8.523,8.523-8.523s8.523,3.818,8.523,8.523
	v34.091C264.307,290.788,260.498,294.598,255.785,294.598z"/>
<g>
</g>
<g>
</g>
<g>
</g>
<g>
</g>
<g>
</g>
<g>
</g>
<g>
</g>
<g>
</g>
<g>
</g>
<g>
</g>
<g>
</g>
<g>
</g>
<g>
</g>
<g>
</g>
<g>
</g>
</svg>
