<svg id="Capa_1" enable-background="new 0 0 497 497" height="512" viewBox="0 0 497 497" width="512" xmlns="http://www.w3.org/2000/svg"><path d="m497 287.147v-77.293c0-3.666-2.651-6.795-6.267-7.398l-46.993-7.832c-4.48-16.269-10.933-31.718-19.096-46.072l27.698-38.778c2.131-2.983 1.793-7.07-.8-9.663l-54.654-54.654c-2.592-2.592-6.679-2.931-9.663-.8l-38.778 27.698c-14.354-8.162-29.803-14.616-46.072-19.096l-7.832-46.993c-.601-3.615-3.73-6.266-7.396-6.266h-77.293c-3.666 0-6.795 2.651-7.398 6.267l-7.832 46.993c-16.269 4.48-31.718 10.933-46.072 19.096l-38.778-27.698c-2.983-2.131-7.07-1.793-9.663.8l-54.654 54.654c-2.592 2.592-2.931 6.679-.8 9.663l27.698 38.778c-8.162 14.354-14.616 29.803-19.096 46.072l-46.993 7.832c-3.615.601-6.266 3.73-6.266 7.396v77.293c0 3.666 2.651 6.795 6.267 7.398l46.993 7.832c4.48 16.269 10.933 31.718 19.096 46.072l-27.698 38.778c-2.131 2.983-1.793 7.07.8 9.663l54.654 54.654c2.592 2.592 6.679 2.931 9.663.8l38.778-27.698c14.354 8.162 29.803 14.616 46.072 19.096l7.832 46.993c.603 3.616 3.732 6.267 7.398 6.267h77.293c3.666 0 6.795-2.651 7.398-6.267l7.832-46.993c16.265-4.478 31.696-10.956 46.046-19.114l38.804 27.717c2.983 2.131 7.07 1.793 9.663-.8l54.654-54.654c2.592-2.592 2.931-6.679.8-9.663l-27.717-38.804c8.159-14.35 14.636-29.781 19.114-46.046l46.993-7.832c3.614-.603 6.265-3.732 6.265-7.398zm-248.5 58.853c-53.848 0-97.5-43.652-97.5-97.5s43.652-97.5 97.5-97.5 97.5 43.652 97.5 97.5-43.652 97.5-97.5 97.5z" fill="#acd5df"/><path d="m250.34 76.01c94.42.99 170.66 77.83 170.66 172.49s-76.24 171.5-170.66 172.49l110.66-172.49z" fill="#83a3ab"/><path d="m250.34 76.01c77.85 1.2 140.66 77.96 140.66 172.49s-62.81 171.29-140.66 172.49c-.61.01-1.23.01-1.84.01-95.27 0-172.5-77.23-172.5-172.5s77.23-172.5 172.5-172.5c.61 0 1.23 0 1.84.01zm80.66 172.49c0-45.56-36.94-82.5-82.5-82.5s-82.5 36.94-82.5 82.5 36.94 82.5 82.5 82.5 82.5-36.94 82.5-82.5z" fill="#93b7c0"/><path d="m248.5 151c-53.848 0-97.5 43.652-97.5 97.5s43.652 97.5 97.5 97.5 97.5-43.652 97.5-97.5-43.652-97.5-97.5-97.5zm0 165c-37.279 0-67.5-30.221-67.5-67.5s30.221-67.5 67.5-67.5 67.5 30.221 67.5 67.5-30.221 67.5-67.5 67.5z" fill="#acd5df"/></svg>