<?xml version="1.0" encoding="iso-8859-1"?>
<!-- Generator: Adobe Illustrator 19.0.0, SVG Export Plug-In . SVG Version: 6.00 Build 0)  -->
<svg version="1.1" id="Capa_1" xmlns="http://www.w3.org/2000/svg" xmlns:xlink="http://www.w3.org/1999/xlink" x="0px" y="0px"
	 viewBox="0 0 472 472" style="enable-background:new 0 0 472 472;" xml:space="preserve">
<path style="fill:#4398D1;" d="M416,472H192L0,120h224L416,472z"/>
<g>
	<circle style="fill:#FDB62F;" cx="368" cy="104" r="56"/>
	<path style="fill:#FDB62F;" d="M360,0h16v24h-16V0z"/>
	<path style="fill:#FDB62F;" d="M360,184h16v24h-16V184z"/>
	<path style="fill:#FDB62F;" d="M264,96h24v16h-24V96z"/>
	<path style="fill:#FDB62F;" d="M448,96h24v16h-24V96z"/>
	<path style="fill:#FDB62F;" d="M288.799,36.118l11.314-11.314l16.971,16.971l-11.314,11.314L288.799,36.118z"/>
	<path style="fill:#FDB62F;" d="M418.918,166.198l11.314-11.314l16.971,16.971l-11.314,11.314L418.918,166.198z"/>
	<path style="fill:#FDB62F;" d="M288.802,171.882l16.971-16.971l11.314,11.314l-16.971,16.971L288.802,171.882z"/>
	<path style="fill:#FDB62F;" d="M418.914,41.771L435.885,24.8l11.314,11.314l-16.971,16.971L418.914,41.771z"/>
</g>
<path style="fill:#F7A72E;" d="M334.76,148.992c24.826,18.386,59.855,13.166,78.241-11.66c14.429-19.483,14.665-46.044,0.583-65.78
	C394.762,103.992,367.528,130.747,334.76,148.992z"/>
<path style="fill:#DEDEDE;" d="M0,120v56l160,296h32L0,120z"/>
<path style="fill:#3E8CC7;" d="M148.704,392.624L192,472h224L293.648,247.688L148.704,392.624z"/>
<path style="fill:#3570AB;" d="M301.216,376l-39.352-72h62.496l-8.72-16h-62.52l-39.352-72h62.592l-8.72-16h-62.616l-43.72-80
	h-18.24l43.72,80h-53.76l-43.72-80h-18.24l43.72,80H43.64l8.72,16h71.2l39.352,72h-71.2l8.72,16h71.264l39.352,72H139.64l8.72,16
	h71.36l43.72,80h18.24l-43.72-80h53.76l43.72,80h18.24l-43.72-80h62.4l-8.72-16H301.216z M141.768,216h53.76l39.352,72h-53.76
	L141.768,216z M229.216,376l-39.352-72h53.76l39.352,72H229.216z"/>
<g>
</g>
<g>
</g>
<g>
</g>
<g>
</g>
<g>
</g>
<g>
</g>
<g>
</g>
<g>
</g>
<g>
</g>
<g>
</g>
<g>
</g>
<g>
</g>
<g>
</g>
<g>
</g>
<g>
</g>
</svg>
