<svg height="512" viewBox="0 0 64 64" width="512" xmlns="http://www.w3.org/2000/svg"><g id="flat"><g fill="#50b4f8"><path d="m27.514 8.874-9-5a1 1 0 0 1 .486-1.874h9v2h-5.141l5.627 3.126z"/><path d="m27 22h-15a1 1 0 0 1 -.423-1.906l15-7 .846 1.812-10.916 5.094h10.493z"/><path d="m26 39h-17a1 1 0 0 1 -.381-1.925l17-7 .762 1.85-12.326 5.075h11.945z"/><path d="m36.486 8.874-.972-1.748 5.627-3.126h-5.141v-2h9a1 1 0 0 1 .486 1.874z"/><path d="m52 22h-15v-2h10.493l-10.916-5.094.846-1.812 15 7a1 1 0 0 1 -.423 1.906z"/><path d="m55 39h-17v-2h11.945l-12.326-5.075.762-1.85 17 7a1 1 0 0 1 -.381 1.925z"/></g><path d="m26.427 14.819 7.401 5.181h-6.828a1 1 0 0 0 -.673 1.74l9.087 8.26h-9.414a1 1 0 0 0 -.735 1.679l10.451 11.321h-10.716v2h13a1 1 0 0 0 .735-1.679l-10.451-11.321h9.716a1 1 0 0 0 .673-1.74l-9.087-8.26h7.414a1 1 0 0 0 .573-1.819l-7.401-5.181h5.828a1 1 0 0 0 .6-1.8l-5.6-4.2h5v-2h-9v2h.667l5.333 4h-6z" fill="#32b1cc"/><path d="m39 57.074-3.929-53.074h-6.142l-3.929 53.074-2.016.087 4.016-54.235a1 1 0 0 1 1-.926h8a1 1 0 0 1 1 .926l4.035 54.435z" fill="#2e7293"/><path d="m12 25h4v4h-4z" fill="#f9bb4b"/><path d="m13 21h2v4h-2z" fill="#32b1cc"/><path d="m9 42h4v4h-4z" fill="#f9bb4b"/><path d="m10 38h2v4h-2z" fill="#32b1cc"/><path d="m48 25h4v4h-4z" fill="#f9bb4b" transform="matrix(-1 0 0 -1 100 54)"/><path d="m49 21h2v4h-2z" fill="#32b1cc"/><path d="m51 42h4v4h-4z" fill="#f9bb4b" transform="matrix(-1 0 0 -1 106 88)"/><path d="m52 38h2v4h-2z" fill="#32b1cc"/><path d="m19 57h26v4h-26z" fill="#ad6327"/><path d="m2 2h60v2h-60z" fill="#195c85"/><path d="m2 20h60v2h-60z" fill="#195c85"/><path d="m2 37h60v2h-60z" fill="#195c85"/></g></svg>