<svg id="Layer_1" enable-background="new 0 0 510 510" height="512" viewBox="0 0 510 510" width="512" xmlns="http://www.w3.org/2000/svg"><g><path d="m135 345-28.499-10-31.501 10v135l30 15 30-15z" fill="#e6f2ff"/><g fill="#cdf"><path d="m75 480h-45v30h45 60 48v-30h-48z"/><path d="m435 343.286-28.5-8.286-31.5 8.286v136.714l30 15 30-15z"/><path d="m46.36 0-32.856 345h241.496l10-179.999-10-165.001z"/></g><path d="m463.64 0h-208.64v345h241.496z" fill="#9bf"/><path d="m443.503 105h-74.863l-7.144-75h74.864z" fill="#4596e6"/><path d="m168.64 135h71.36v75h-78.503z" fill="#6cf"/><path d="m131.36 210h-74.864l7.143-75h74.864z" fill="#6cf"/><path d="m240 105h-68.503l7.143-75h61.36z" fill="#6cf"/><path d="m270 30h61.36l7.143 75h-68.503z" fill="#4596e6"/><path d="m240 240v75h-88.503l7.143-75z" fill="#6cf"/><path d="m270 240h81.36l7.143 75h-88.503z" fill="#4596e6"/><path d="m270 210v-75h71.36l7.143 75z" fill="#4596e6"/><path d="m371.496 135h74.864l7.144 75h-74.864z" fill="#4596e6"/><path d="m148.503 30-7.143 75h-74.863l7.143-75z" fill="#6cf"/><path d="m53.639 240h74.864l-7.143 75h-74.864z" fill="#6cf"/><path d="m388.64 315-7.144-75h74.864l7.144 75z" fill="#4596e6"/><path d="m330 480h150v30h-150z" fill="#9bf"/></g></svg>